PathFileType	4	(X/Y/Z)	C:/Users/opensim2020/Desktop/walking_exp_matlab/subject02_walking06_straight_03.trc																																																																																																																									
DataRate	CameraRate	NumFrames	NumMarkers	Units	OrigDataRate	OrigDataStartFrame	OrigNumFrames																																																																																																																					
100	100	6	41	mm	100	2118	223																																																																																																																					
Frame#	Time	LFHD			RFHD			LBHD			RBHD			C7			T10			CLAV			STRN			RBAK			LSHO			LUPA			LELB			LFRM			LWRA			LWRB			LFIN			RSHO			RUPA			RELB			RFRM			RWRA			RWRB			RFIN			LASI			RASI			LPSI			RPSI			LTHI			LKNE			LTIB			LANK			LHEE			LTOE			RTHI			RKNE			RTIB			RANK			RHEE			RTOE			*39			*40		
		X1	Y1	Z1	X2	Y2	Z2	X3	Y3	Z3	X4	Y4	Z4	X5	Y5	Z5	X6	Y6	Z6	X7	Y7	Z7	X8	Y8	Z8	X9	Y9	Z9	X10	Y10	Z10	X11	Y11	Z11	X12	Y12	Z12	X13	Y13	Z13	X14	Y14	Z14	X15	Y15	Z15	X16	Y16	Z16	X17	Y17	Z17	X18	Y18	Z18	X19	Y19	Z19	X20	Y20	Z20	X21	Y21	Z21	X22	Y22	Z22	X23	Y23	Z23	X24	Y24	Z24	X25	Y25	Z25	X26	Y26	Z26	X27	Y27	Z27	X28	Y28	Z28	X29	Y29	Z29	X30	Y30	Z30	X31	Y31	Z31	X32	Y32	Z32	X33	Y33	Z33	X34	Y34	Z34	X35	Y35	Z35	X36	Y36	Z36	X37	Y37	Z37	X38	Y38	Z38	X39	Y39	Z39	X40	Y40	Z40	X41	Y41	Z41
																																																																																																																												
112	1.11	165.57805	1756.85376	1322.41125	160.65395	1740.02393	1465.67444	43.3641	1668.08264	1309.52625	26.64734	1648.7677	1450.9906	0.94542	1527.65576	1380.43237	-45.42534	1254.21692	1382.15967	143.26068	1468.26123	1378.12891	200.18861	1296.84497	1392.74817	-55.23721	1354.4978	1443.01221	84.38845	1506.0636	1205.70483	105.17934	1308.24036	1116.23218	134.24289	1169.44031	1099.83704	187.55078	1047.15955	1092.66467	278.59103	950.83264	1132.11133	236.91048	935.07166	1097.74609	279.27194	885.34357	1093.65686	69.7414	1502.00708	1570.39905	42.85004	1315.42224	1660.29016	65.54514	1170.45129	1687.09753	111.47631	1057.89014	1706.31067	177.10294	939.66162	1684.19397	133.72293	929.89172	1720.47998	179.34505	872.34515	1718.32678	193.26091	996.70605	1261.87268	182.39458	985.30444	1514.07202	-19.4188	1037.98499	1329.21851	-29.9016	1034.3291	1444.75122	127.69289	680.07581	1217.9552	96.09402	478.30899	1254.79431	43.51922	289.81015	1264.69446	54.78519	68.27182	1313.64734	19.932	41.41033	1365.51379	211.73058	34.32304	1303.21753	151.59174	685.38611	1604.71497	191.14258	489.05899	1595.72302	73.95591	346.89432	1585.97644	-20.60577	180.57591	1545.98987	-56.33653	137.77776	1479.98145	72.97938	65.2009	1604.00818	53.12991	1812.05493	1406.50635	2845.10425	1033.95325	-3360.23218
113	1.12	175.06474	1756.94446	1321.71008	169.99028	1739.70581	1465.25293	53.00665	1668.32202	1308.65588	36.12373	1648.71619	1450.33533	10.1081	1527.82043	1379.03394	-36.82573	1254.5144	1380.68665	152.30403	1468.17932	1376.82922	208.90419	1296.5802	1390.97485	-46.5558	1354.70361	1441.12183	94.12327	1506.68811	1204.47314	117.46279	1309.96265	1114.03186	149.92966	1171.64197	1096.96875	206.13261	1050.89355	1090.2345	300.06979	957.26843	1131.24646	259.12659	939.84839	1096.42908	303.11285	891.59985	1093.00757	78.3516	1501.30688	1568.90735	49.3322	1314.8479	1657.92749	70.48572	1169.56421	1684.65918	114.54843	1056.44421	1704.73132	178.60979	937.34418	1682.9635	134.67038	928.1076	1718.69458	180.01601	870.60004	1717.54822	200.05969	996.20435	1259.12317	192.06155	985.30334	1511.17102	-11.92079	1037.9375	1329.68652	-21.14553	1035.05042	1445.37598	132.44424	679.78503	1217.43237	99.48618	478.11188	1254.50427	45.20497	290.08521	1264.82422	55.10423	68.35928	1313.83875	20.05556	41.5037	1365.85681	211.91087	34.19972	1303.10522	164.29375	686.81616	1603.89453	206.41396	490.23651	1593.66553	94.90785	342.9072	1584.03345	7.02904	172.82596	1543.85522	-27.1267	128.54869	1478.0459	106.18884	62.2112	1601.43933	62.69031	1812.05066	1406.06726	NaN	NaN	NaN
114	1.13	184.75914	1756.56763	1321.65564	179.38135	1739.26672	1464.86206	62.61589	1668.56226	1307.86121	45.29972	1648.30396	1449.03247	19.51687	1527.86804	1377.74854	-28.21246	1254.70972	1379.4967	161.38593	1467.99573	1375.63538	217.63342	1296.21448	1389.21436	-37.8127	1354.81921	1439.27881	103.77201	1507.16125	1203.29993	130.4203	1311.44934	1112.10266	165.59557	1173.89148	1094.29468	225.38257	1054.67517	1088.36609	321.11612	963.71307	1130.47144	281.15402	945.27026	1095.43005	326.53162	898.07056	1092.50696	87.26239	1500.66699	1567.86462	55.9103	1314.41565	1656.06714	75.81781	1168.95251	1682.67957	117.62379	1055.07654	1702.68762	179.93207	935.05023	1681.94885	135.48041	926.32422	1716.96985	180.31969	868.65057	1716.79846	206.36011	995.41168	1256.23181	201.62184	985.13184	1508.48804	-4.70299	1037.78918	1330.01575	-12.38701	1035.76477	1446.01001	137.66586	679.13293	1216.76538	102.91462	477.81961	1254.37158	46.84641	290.3671	1265.01794	55.27044	68.58842	1314.0564	20.41992	41.81861	1366.29675	212.07988	34.06414	1302.98413	176.5265	687.82953	1602.8147	221.29294	491.03851	1591.38696	115.92655	338.91092	1582.06152	35.07552	165.14447	1541.85168	3.20508	119.04369	1476.69702	139.72873	59.39534	1598.63354	72.22133	1811.8833	1405.8136	NaN	NaN	NaN
115	1.14	194.49806	1756.65979	1321.26648	188.66364	1738.62915	1464.38293	72.28428	1668.61792	1307.0708	54.57442	1647.99377	1448.1239	28.51728	1527.84277	1376.42993	-19.62189	1254.79688	1378.50281	170.48833	1467.66162	1374.46399	226.35262	1295.6969	1387.42847	-29.2208	1354.62183	1437.45361	113.32165	1507.54675	1202.21082	143.52051	1312.98291	1110.56665	180.92813	1176.03491	1091.46985	244.62645	1058.26575	1086.63879	341.80084	970.20996	1129.80835	302.55096	950.72327	1094.38257	349.39401	904.61169	1092.0603	95.98884	1499.81641	1566.39331	62.89576	1314.03845	1654.33923	80.79566	1168.03674	1680.29248	120.67926	1053.68298	1700.93005	181.33202	932.67273	1680.98657	136.21048	924.62128	1715.39136	180.27026	866.44116	1715.96008	213.02203	994.63068	1253.66272	211.01422	984.8443	1506.06384	2.79572	1037.58179	1330.39197	-3.53995	1036.30652	1446.52441	142.86995	678.63074	1216.22827	106.5471	477.54092	1254.2981	48.69936	290.67068	1265.20776	55.52367	68.8184	1314.31104	20.31663	42.09183	1366.3374	212.23216	33.96044	1302.87585	188.54645	688.71655	1601.64185	235.68613	491.43546	1588.8374	136.87814	334.91452	1580.19385	63.60701	157.98172	1540.33167	32.5192	110.68211	1474.96497	173.46594	57.14868	1595.80737	81.87448	1811.65405	1405.3645	NaN	NaN	NaN
116	1.15	204.22086	1756.36377	1321.10828	198.15643	1738.03259	1464.14001	81.83347	1668.64368	1306.29541	63.94824	1647.80908	1447.69812	38.07233	1527.5896	1375.27698	-11.01459	1254.78455	1377.70789	179.6252	1467.26306	1373.31592	235.08391	1295.07886	1385.65002	-20.51916	1354.47412	1435.99097	122.85764	1507.80334	1201.17639	155.59146	1314.41064	1108.67151	196.24118	1178.1803	1089.0592	262.91864	1061.95801	1085.27234	361.95404	976.664	1129.29639	323.50162	956.10687	1093.45325	371.67346	911.26312	1091.69507	105.10837	1499.10303	1565.40173	69.8753	1313.51514	1652.49512	86.18701	1167.38074	1678.39099	123.87379	1052.45483	1699.47253	182.64229	930.47961	1680.23022	136.97545	923.01733	1713.88538	180.55174	864.71118	1715.6532	219.92407	993.7359	1251.22986	219.44739	984.10211	1503.28796	10.35823	1037.19775	1330.72241	5.21889	1036.6582	1446.91638	148.20967	678.04999	1215.73914	110.28379	477.31134	1254.19043	50.68687	290.94659	1265.36694	55.78293	69.02758	1314.48718	20.31014	42.51533	1366.59082	212.44257	33.8577	1302.81738	200.27876	689.40936	1600.50806	250.19102	492.02817	1586.82825	157.78734	330.97064	1578.37439	92.16132	150.99658	1538.76758	62.87001	102.2463	1473.61133	207.19722	55.41303	1593.00464	91.41531	1810.90369	1404.86438	NaN	NaN	NaN
117	1.16	213.98595	1755.88733	1320.88892	207.58374	1737.27771	1463.82971	91.64526	1668.41895	1305.50659	73.41492	1647.23621	1446.77356	47.29395	1527.27405	1374.11536	-2.38404	1254.65527	1377.13391	188.74161	1466.69836	1372.20325	243.85306	1294.34253	1383.95496	-11.59815	1354.42444	1434.82324	132.23586	1507.96863	1200.20325	168.14595	1315.78943	1107.17017	211.56036	1180.4928	1087.05493	280.95538	1065.92773	1083.51953	381.68121	982.95123	1128.75586	344.41821	961.39142	1092.54358	393.34723	917.79749	1091.41077	113.95872	1498.09607	1564.06775	77.03717	1312.84375	1650.71606	91.1944	1166.4574	1676.08582	126.83434	1050.95068	1697.60962	183.95117	928.23846	1679.47961	137.82671	921.49554	1712.50452	180.6183	862.7431	1715.24048	226.84169	992.80475	1249.08643	228.64621	983.74554	1501.60681	18.08961	1036.68567	1331.01794	14.0391	1036.60474	1447.1062	153.62842	677.44458	1215.33801	114.25	476.97171	1254.06226	52.86935	291.18781	1265.48328	56.08355	69.19401	1314.66138	20.53877	42.75933	1366.51147	212.63901	33.7756	1302.77454	211.81898	689.88855	1599.28186	264.19803	492.42102	1584.37939	178.62355	327.20447	1576.49023	120.84781	144.32338	1537.21948	93.15401	94.31583	1472.401	240.82675	54.28499	1590.34009	101.04906	1810.67712	1404.50134	NaN	NaN	NaN
